<svg xmlns="http://www.w3.org/2000/svg" viewBox="0 0 900 1150" role="img" aria-labelledby="title desc">
  <title id="title">Premium developer portrait graphic for Yogeshwaran M</title>
  <desc id="desc">A polished editorial-style developer portrait with code, research, and product engineering visual motifs.</desc>
  <defs>
    <linearGradient id="bg" x1="90" y1="80" x2="810" y2="1080" gradientUnits="userSpaceOnUse">
      <stop offset="0" stop-color="#112234"/>
      <stop offset=".45" stop-color="#07111b"/>
      <stop offset="1" stop-color="#130f1e"/>
    </linearGradient>
    <linearGradient id="edge" x1="178" y1="99" x2="741" y2="1018" gradientUnits="userSpaceOnUse">
      <stop offset="0" stop-color="#73f7ff"/>
      <stop offset=".52" stop-color="#a78bfa"/>
      <stop offset="1" stop-color="#f4c76b"/>
    </linearGradient>
    <linearGradient id="skin" x1="360" y1="230" x2="540" y2="590" gradientUnits="userSpaceOnUse">
      <stop offset="0" stop-color="#d8a47a"/>
      <stop offset="1" stop-color="#8d573f"/>
    </linearGradient>
    <linearGradient id="jacket" x1="244" y1="610" x2="668" y2="1070" gradientUnits="userSpaceOnUse">
      <stop offset="0" stop-color="#19283b"/>
      <stop offset="1" stop-color="#0c121f"/>
    </linearGradient>
    <filter id="softShadow" x="-20%" y="-20%" width="140%" height="140%">
      <feDropShadow dx="0" dy="36" stdDeviation="32" flood-color="#000" flood-opacity=".45"/>
    </filter>
    <filter id="glow" x="-60%" y="-60%" width="220%" height="220%">
      <feGaussianBlur stdDeviation="18" result="blur"/>
      <feMerge>
        <feMergeNode in="blur"/>
        <feMergeNode in="SourceGraphic"/>
      </feMerge>
    </filter>
  </defs>
  <rect width="900" height="1150" rx="44" fill="url(#bg)"/>
  <path d="M105 978c154-85 251-302 380-475 99-133 201-235 320-258v905H105Z" fill="#0b1724" opacity=".75"/>
  <path d="M92 93h716v967H92z" rx="38" fill="none" stroke="url(#edge)" stroke-width="2" opacity=".55"/>
  <g opacity=".36" stroke="#73f7ff" stroke-width="1">
    <path d="M150 181h148M150 221h88M150 261h178M650 212h88M612 252h126M650 292h62"/>
    <path d="M148 856h128M148 896h80M148 936h172M590 840h156M628 880h118M568 920h178"/>
  </g>
  <g opacity=".22" fill="none" stroke="#f4c76b" stroke-width="2">
    <path d="M118 410c76-43 139-43 188 0s112 43 188 0 139-43 188 0"/>
    <path d="M190 466c54-30 99-30 134 0s80 30 134 0 99-30 134 0"/>
  </g>
  <circle cx="690" cy="177" r="72" fill="#73f7ff" opacity=".08" filter="url(#glow)"/>
  <circle cx="198" cy="740" r="95" fill="#f4c76b" opacity=".08" filter="url(#glow)"/>
  <g filter="url(#softShadow)">
    <path d="M246 1094c20-226 105-345 209-345s189 119 208 345Z" fill="url(#jacket)"/>
    <path d="M317 1094c11-154 57-247 138-247s128 93 138 247Z" fill="#101b2a"/>
    <path d="M369 760c23 44 57 66 86 66s63-22 86-66v-92H369Z" fill="#9f684b"/>
    <path d="M309 427c0-122 54-203 146-203s146 81 146 203c0 126-61 238-146 238S309 553 309 427Z" fill="url(#skin)"/>
    <path d="M288 402c18-116 75-183 167-183 86 0 139 52 159 156-31-18-74-24-129-18-65 8-116-6-155-42-18 24-32 53-42 87Z" fill="#111827"/>
    <path d="M319 425c28-22 58-25 90-8M500 417c33-17 64-13 92 10" stroke="#162033" stroke-width="13" stroke-linecap="round" opacity=".72"/>
    <path d="M390 537c42 31 88 31 130 0" fill="none" stroke="#4b2a25" stroke-width="9" stroke-linecap="round" opacity=".48"/>
    <path d="M365 726l90 118 90-118 32 52-122 159-122-159Z" fill="#e7f8ff" opacity=".92"/>
    <path d="M246 1094c18-177 70-287 157-330l52 330Z" fill="#142236"/>
    <path d="M664 1094c-18-177-70-287-157-330l-52 330Z" fill="#111b2c"/>
  </g>
  <g transform="translate(602 620)">
    <rect width="164" height="108" rx="12" fill="#07111b" stroke="#73f7ff" stroke-opacity=".38"/>
    <path d="M27 35h42M27 55h84M27 75h58" stroke="#73f7ff" stroke-width="7" stroke-linecap="round" opacity=".7"/>
    <circle cx="126" cy="37" r="11" fill="#f4c76b"/>
  </g>
  <g transform="translate(126 604)">
    <rect width="132" height="132" rx="18" fill="#07111b" stroke="#a78bfa" stroke-opacity=".4"/>
    <path d="M38 76 23 62l15-14M94 48l15 14-15 14M55 91l24-58" fill="none" stroke="#a78bfa" stroke-width="9" stroke-linecap="round" stroke-linejoin="round"/>
  </g>
  <text x="450" y="1036" text-anchor="middle" font-family="Inter, Arial, sans-serif" font-size="28" font-weight="700" fill="#f8fafc" letter-spacing="6">YOGE.DEV</text>
</svg>
